<svg xmlns="http://www.w3.org/2000/svg" width="102" height="24" viewBox="0 0 102 24" fill="none">
    <path d="M98.1187 3.08974C97.3355 2.36325 96.1682 2 94.6167 2L93.176 2V5.09829H93.4863C94.0035 5.09829 94.4025 5.23362 94.6832 5.50427C94.9492 5.76068 95.0822 6.13818 95.0822 6.63675V9.37179C95.0822 10.084 95.1856 10.6325 95.3925 11.0171C95.5993 11.416 95.9244 11.7009 96.3677 11.8718C96.4856 11.9188 96.6137 11.9616 96.7518 12C96.6137 12.0384 96.4856 12.0812 96.3677 12.1282C95.9244 12.2991 95.5993 12.5769 95.3925 12.9615C95.1856 13.3604 95.0822 13.916 95.0822 14.6282V17.3632C95.0822 17.8618 94.9492 18.2393 94.6832 18.4957C94.4025 18.7664 94.0035 18.9017 93.4863 18.9017H93.176V22H94.6167C96.1682 22 97.3355 21.6368 98.1187 20.9103C98.9018 20.1838 99.2934 19.1581 99.2934 17.8333V14.5214C99.2934 14.208 99.382 13.9658 99.5593 13.7949C99.7366 13.6382 99.9657 13.5598 100.246 13.5598H101V10.4402H100.246C99.9657 10.4402 99.7366 10.3618 99.5593 10.2051C99.382 10.0484 99.2934 9.80627 99.2934 9.47863V6.16667C99.2934 4.84188 98.9018 3.81624 98.1187 3.08974Z"
          fill="black" fill-opacity="0.87"/>
    <path d="M7.38329 22C5.83179 22 4.66448 21.6368 3.88135 20.9103C3.09821 20.1838 2.70664 19.1581 2.70664 17.8333V14.5214C2.70664 14.1937 2.61799 13.9516 2.44067 13.7949C2.26336 13.6382 2.03433 13.5598 1.75358 13.5598H1V10.4402H1.75358C2.03433 10.4402 2.26336 10.3618 2.44067 10.2051C2.61799 10.0342 2.70664 9.79202 2.70664 9.47863V6.16667C2.70664 4.84188 3.09821 3.81624 3.88135 3.08974C4.66448 2.36325 5.83179 2 7.38329 2H8.82396V5.09829H8.51366C7.9965 5.09829 7.59754 5.23362 7.3168 5.50428C7.05083 5.76069 6.91784 6.13818 6.91784 6.63675V9.3718C6.91784 10.084 6.81441 10.6396 6.60754 11.0385C6.40068 11.4231 6.0756 11.7009 5.63232 11.8718C5.51437 11.9188 5.38634 11.9616 5.24824 12C5.38634 12.0384 5.51437 12.0812 5.63232 12.1282C6.0756 12.2991 6.40068 12.584 6.60754 12.9829C6.81441 13.3675 6.91784 13.916 6.91784 14.6282V17.3632C6.91784 17.8618 7.05083 18.2393 7.3168 18.4957C7.59754 18.7664 7.9965 18.9017 8.51366 18.9017H8.82396V22H7.38329Z"
          fill="black" fill-opacity="0.87"/>
    <path d="M12.2469 17.9091V5.18182H15.4352L20.2547 12.5352L24.9413 5.18182H28.1296L28.1687 17.9091H24.6088L24.5745 11.1564L21.0489 16.6545H19.3276L15.8264 11.3453V17.9091H12.2469Z"
          fill="black" fill-opacity="0.87"/>
    <path d="M57.7346 17.1455C58.4909 17.7636 59.5471 18.0727 60.9033 18.0727C61.3988 18.0727 61.8747 18.0242 62.3311 17.9273C62.7875 17.8424 63.1722 17.703 63.4852 17.5091L62.5659 15.0909C62.2529 15.297 61.8747 15.4 61.4314 15.4C61.1054 15.4 60.8381 15.303 60.6294 15.1091C60.4208 14.903 60.3165 14.6242 60.3165 14.2727V11H62.7419V8.41818H60.3165V5.85455H56.6001V8.41818H55.0549V11H56.6001V14.3091C56.6001 15.5697 56.9782 16.5152 57.7346 17.1455Z"
          fill="black" fill-opacity="0.87"/>
    <path fill-rule="evenodd" clip-rule="evenodd"
          d="M85.356 18.0727C84.4563 18.0727 83.6869 17.8909 83.048 17.5273C82.8124 17.3888 82.5973 17.2255 82.4025 17.0376V21.4364H78.6861V8.05455H82.2265V9.03773C82.4432 8.7988 82.6909 8.59834 82.9697 8.43636C83.6087 8.07273 84.4041 7.89091 85.356 7.89091C86.321 7.89091 87.1947 8.10303 87.9771 8.52727C88.7725 8.93939 89.3984 9.52727 89.8548 10.2909C90.3243 11.0424 90.559 11.9394 90.559 12.9818C90.559 14.0242 90.3243 14.9273 89.8548 15.6909C89.3984 16.4545 88.7725 17.0424 87.9771 17.4545C87.1947 17.8667 86.321 18.0727 85.356 18.0727ZM84.5736 15.3273C84.9909 15.3273 85.3626 15.2364 85.6886 15.0545C86.0276 14.8727 86.2949 14.6061 86.4905 14.2545C86.6992 13.903 86.8035 13.4788 86.8035 12.9818C86.8035 12.4849 86.6992 12.0606 86.4905 11.7091C86.2949 11.3576 86.0276 11.0909 85.6886 10.9091C85.3626 10.7273 84.9909 10.6364 84.5736 10.6364C84.1564 10.6364 83.7782 10.7273 83.4392 10.9091C83.1132 11.0909 82.8459 11.3576 82.6372 11.7091C82.4416 12.0606 82.3438 12.4849 82.3438 12.9818C82.3438 13.4788 82.4416 13.903 82.6372 14.2545C82.8459 14.6061 83.1132 14.8727 83.4392 15.0545C83.7782 15.2364 84.1564 15.3273 84.5736 15.3273Z"
          fill="black" fill-opacity="0.87"/>
    <path d="M69.4904 18.0727C68.6297 18.0727 67.8539 17.9152 67.1627 17.6C66.4847 17.2848 65.95 16.7939 65.5588 16.1273C65.1807 15.4485 64.9916 14.5939 64.9916 13.5636V8.05455H68.708V13C68.708 13.7636 68.8579 14.3091 69.1579 14.6364C69.4708 14.9636 69.9076 15.1273 70.4684 15.1273C70.8335 15.1273 71.166 15.0485 71.4659 14.8909C71.7658 14.7333 72.0071 14.4848 72.1896 14.1455C72.3722 13.7939 72.4635 13.3455 72.4635 12.8V8.05455H76.1799V17.9091H72.6395V16.8787C72.3789 17.1447 72.0789 17.367 71.7398 17.5455C71.0486 17.897 70.2988 18.0727 69.4904 18.0727Z"
          fill="black" fill-opacity="0.87"/>
    <path fill-rule="evenodd" clip-rule="evenodd"
          d="M49.0627 18.0727C47.8108 18.0727 46.7155 17.8545 45.7766 17.4182C44.8508 16.9697 44.127 16.3636 43.6054 15.6C43.0969 14.8242 42.8426 13.9455 42.8426 12.9636C42.8426 11.9818 43.0904 11.1091 43.5859 10.3455C44.0944 9.5697 44.7921 8.9697 45.6788 8.54545C46.5655 8.10909 47.5631 7.89091 48.6715 7.89091C49.7146 7.89091 50.6666 8.09091 51.5272 8.49091C52.3878 8.87879 53.0724 9.45455 53.581 10.2182C54.0895 10.9818 54.3438 11.9091 54.3438 13C54.3438 13.1212 54.3373 13.2606 54.3243 13.4182C54.3112 13.5758 54.2982 13.7212 54.2851 13.8545H46.5823C46.6334 14.0305 46.7039 14.1942 46.7937 14.3455C47.0154 14.697 47.3283 14.9697 47.7326 15.1636C48.1368 15.3455 48.6193 15.4364 49.18 15.4364C49.7016 15.4364 50.145 15.3697 50.5101 15.2364C50.8882 15.0909 51.2599 14.8727 51.625 14.5818L53.581 16.4727C53.0724 16.9939 52.4465 17.3939 51.7032 17.6727C50.96 17.9394 50.0798 18.0727 49.0627 18.0727ZM46.7546 11.4C46.6478 11.5914 46.5723 11.8035 46.528 12.0364H50.8669C50.8246 11.7964 50.7448 11.5782 50.6274 11.3818C50.4449 11.0545 50.1841 10.8 49.845 10.6182C49.5191 10.4364 49.1344 10.3455 48.691 10.3455C48.2477 10.3455 47.8565 10.4364 47.5174 10.6182C47.1914 10.8 46.9371 11.0606 46.7546 11.4Z"
          fill="black" fill-opacity="0.87"/>
    <path fill-rule="evenodd" clip-rule="evenodd"
          d="M33.1145 17.4182C34.0533 17.8545 35.1487 18.0727 36.4005 18.0727C37.4176 18.0727 38.2978 17.9394 39.0411 17.6727C39.7844 17.3939 40.4103 16.9939 40.9189 16.4727L38.9629 14.5818C38.5977 14.8727 38.2261 15.0909 37.848 15.2364C37.4828 15.3697 37.0395 15.4364 36.5179 15.4364C35.9572 15.4364 35.4747 15.3455 35.0704 15.1636C34.6662 14.9697 34.3532 14.697 34.1316 14.3455C34.0418 14.1942 33.9713 14.0305 33.9202 13.8545H41.623C41.6361 13.7212 41.6491 13.5758 41.6621 13.4182C41.6752 13.2606 41.6817 13.1212 41.6817 13C41.6817 11.9091 41.4274 10.9818 40.9189 10.2182C40.4103 9.45455 39.7257 8.87879 38.8651 8.49091C38.0044 8.09091 37.0525 7.89091 36.0093 7.89091C34.9009 7.89091 33.9034 8.10909 33.0167 8.54545C32.1299 8.9697 31.4323 9.5697 30.9237 10.3455C30.4282 11.1091 30.1805 11.9818 30.1805 12.9636C30.1805 13.9455 30.4347 14.8242 30.9433 15.6C31.4649 16.3636 32.1886 16.9697 33.1145 17.4182ZM33.8658 12.0364C33.9101 11.8035 33.9857 11.5914 34.0925 11.4C34.275 11.0606 34.5293 10.8 34.8553 10.6182C35.1943 10.4364 35.5855 10.3455 36.0289 10.3455C36.4722 10.3455 36.8569 10.4364 37.1829 10.6182C37.522 10.8 37.7827 11.0545 37.9653 11.3818C38.0827 11.5782 38.1625 11.7964 38.2047 12.0364H33.8658Z"
          fill="black" fill-opacity="0.87"/>
</svg>
