<svg width="102" height="24" viewBox="0 0 102 24" fill="none" xmlns="http://www.w3.org/2000/svg">
<path d="M95.992 8.71997C96.6853 8.71997 97.3093 8.9173 97.864 9.31197C98.4187 9.70664 98.8507 10.2453 99.16 10.928C99.4693 11.6 99.624 12.3413 99.624 13.152C99.624 13.952 99.4693 14.7093 99.16 15.424C98.8507 16.128 98.4133 16.6986 97.848 17.136C97.2933 17.5626 96.6587 17.776 95.944 17.776C95.112 17.776 94.3973 17.6053 93.8 17.264C93.2133 16.912 92.776 16.3733 92.488 15.648C92.488 16.256 92.5093 17.232 92.552 18.576C92.5947 19.8773 92.616 20.7946 92.616 21.328H89C89.064 19.344 89.096 17.2693 89.096 15.104C89.096 12.9386 89.064 10.864 89 8.87997H92.072L92.536 10.88C92.8347 10.1333 93.2827 9.5893 93.88 9.24797C94.4773 8.89597 95.1813 8.71997 95.992 8.71997ZM94.28 14.896C94.76 14.896 95.16 14.7466 95.48 14.448C95.8107 14.1386 95.976 13.7386 95.976 13.248C95.976 12.704 95.8267 12.2613 95.528 11.92C95.2293 11.5786 94.824 11.408 94.312 11.408C93.7253 11.408 93.2827 11.552 92.984 11.84C92.6853 12.1173 92.536 12.5866 92.536 13.248C92.536 13.6213 92.632 13.936 92.824 14.192C93.016 14.4373 93.2453 14.6186 93.512 14.736C93.7787 14.8426 94.0347 14.896 94.28 14.896Z" fill="black"/>
<path d="M86.715 8.87988C86.6403 10.2239 86.603 11.6745 86.603 13.2319C86.603 14.7999 86.6403 16.2612 86.715 17.6159C86.0323 17.5839 85.4937 17.5679 85.099 17.5679C84.7257 17.5679 84.187 17.5839 83.483 17.6159L83.019 15.2639C82.7737 16.1172 82.3897 16.7519 81.867 17.1679C81.3443 17.5732 80.7363 17.7759 80.043 17.7759C79.403 17.7759 78.8483 17.6372 78.379 17.3599C77.9097 17.0719 77.5523 16.6879 77.307 16.2079C77.0723 15.7279 76.955 15.1892 76.955 14.5919V12.2879C76.955 10.8692 76.9283 9.73322 76.875 8.87988H80.475C80.411 10.4479 80.379 11.9999 80.379 13.5359C80.379 14.0052 80.491 14.3786 80.715 14.6559C80.9497 14.9332 81.243 15.0719 81.595 15.0719C81.9257 15.0719 82.2137 14.9279 82.459 14.6399C82.715 14.3412 82.8697 13.9359 82.923 13.4239V13.0559C82.9443 12.2239 82.955 11.6479 82.955 11.3279C82.955 10.5919 82.9337 9.77588 82.891 8.87988H86.715Z" fill="black"/>
<path d="M74.9204 11.7439C73.939 11.6799 73.043 11.6319 72.2324 11.5999L72.2164 13.2959C72.2164 13.8719 72.3391 14.3252 72.5844 14.6559C72.8404 14.9759 73.2884 15.1359 73.9284 15.1359C74.1737 15.1359 74.4084 15.1145 74.6324 15.0719C74.5897 15.4665 74.5684 15.8665 74.5684 16.2719C74.5684 16.4639 74.5791 16.9012 74.6004 17.5839C74.1311 17.6692 73.7364 17.7225 73.4164 17.7439C73.0964 17.7652 72.6804 17.7759 72.1684 17.7759C70.9204 17.7759 70.035 17.4772 69.5124 16.8799C69.0004 16.2719 68.7444 15.4292 68.7444 14.3519L68.7604 11.6479C68.259 11.6692 67.7364 11.7012 67.1924 11.7439V8.91187C67.7471 8.91187 68.2164 8.73587 68.6004 8.38387C68.9844 8.03187 69.2137 7.61054 69.2884 7.11987H73.6404C73.0964 7.86654 72.4937 8.46387 71.8324 8.91187H74.9204V11.7439Z" fill="black"/>
<path d="M58.3269 13.616C58.4123 14.0853 58.6203 14.4693 58.9509 14.768C59.2923 15.056 59.7723 15.2 60.3909 15.2C60.8389 15.2 61.2603 15.1146 61.6549 14.944C62.0496 14.7626 62.3643 14.512 62.5989 14.192C63.3136 14.544 64.2629 14.9226 65.4469 15.328C65.1163 16.0746 64.5136 16.672 63.6389 17.12C62.7749 17.5573 61.6443 17.776 60.2469 17.776C58.4336 17.776 57.0896 17.36 56.2149 16.528C55.3509 15.6853 54.9189 14.5813 54.9189 13.216C54.9189 11.8826 55.3509 10.8 56.2149 9.96797C57.0789 9.13597 58.4229 8.71997 60.2469 8.71997C61.3349 8.71997 62.2789 8.9013 63.0789 9.26397C63.8789 9.62664 64.4923 10.1333 64.9189 10.784C65.3456 11.424 65.5589 12.16 65.5589 12.992C65.5589 13.2693 65.5483 13.4773 65.5269 13.616H58.3269ZM60.4709 11.136C59.9376 11.136 59.5003 11.2373 59.1589 11.44C58.8176 11.6426 58.5776 11.92 58.4389 12.272H62.2149C62.0869 11.9306 61.8789 11.6586 61.5909 11.456C61.3029 11.2426 60.9296 11.136 60.4709 11.136Z" fill="black"/>
<path d="M45.7332 13.616C45.8185 14.0853 46.0265 14.4693 46.3572 14.768C46.6985 15.056 47.1785 15.2 47.7972 15.2C48.2452 15.2 48.6665 15.1146 49.0612 14.944C49.4559 14.7626 49.7705 14.512 50.0052 14.192C50.7199 14.544 51.6692 14.9226 52.8532 15.328C52.5225 16.0746 51.9199 16.672 51.0452 17.12C50.1812 17.5573 49.0505 17.776 47.6532 17.776C45.8399 17.776 44.4959 17.36 43.6212 16.528C42.7572 15.6853 42.3252 14.5813 42.3252 13.216C42.3252 11.8826 42.7572 10.8 43.6212 9.96797C44.4852 9.13597 45.8292 8.71997 47.6532 8.71997C48.7412 8.71997 49.6852 8.9013 50.4852 9.26397C51.2852 9.62664 51.8985 10.1333 52.3252 10.784C52.7519 11.424 52.9652 12.16 52.9652 12.992C52.9652 13.2693 52.9545 13.4773 52.9332 13.616H45.7332ZM47.8772 11.136C47.3439 11.136 46.9065 11.2373 46.5652 11.44C46.2239 11.6426 45.9839 11.92 45.8452 12.272H49.6212C49.4932 11.9306 49.2852 11.6586 48.9972 11.456C48.7092 11.2426 48.3359 11.136 47.8772 11.136Z" fill="black"/>
<path d="M38.96 6L40.208 17.616H36.064L35.808 9.328L34.208 17.616H30.016L28.384 9.392L28.144 17.616H24L25.248 6H30.688L32.08 13.568L33.296 6H38.96Z" fill="black"/>
<circle cx="10" cy="11" r="8" fill="#FF0303"/>
</svg>
