<svg width="16" height="40" viewBox="0 0 16 40" fill="none" xmlns="http://www.w3.org/2000/svg">
<path id="{" d="M13.0538 40C9.88102 40 7.49386 39.2735 5.89235 37.8205C4.29084 36.3675 3.49008 34.3162 3.49008 31.6667V25.0427C3.49008 24.3875 3.30878 23.9031 2.94618 23.5897C2.58357 23.2764 2.1152 23.1197 1.54108 23.1197H0V16.8803H1.54108C2.1152 16.8803 2.58357 16.7236 2.94618 16.4103C3.30878 16.0684 3.49008 15.584 3.49008 14.9573V8.33333C3.49008 5.68376 4.29084 3.63248 5.89235 2.17949C7.49386 0.726495 9.88102 0 13.0538 0H16V6.19658H15.3654C14.3078 6.19658 13.492 6.46724 12.9178 7.00855C12.3739 7.52137 12.102 8.27635 12.102 9.2735V14.7436C12.102 16.1681 11.8905 17.2792 11.4674 18.0769C11.0444 18.8462 10.3796 19.4017 9.47309 19.7436C8.59679 20.0855 7.44854 20.3134 6.02833 20.4274V19.5726C7.44854 19.6866 8.59679 19.9145 9.47309 20.2564C10.3796 20.5983 11.0444 21.1681 11.4674 21.9658C11.8905 22.735 12.102 23.8319 12.102 25.2564V30.7265C12.102 31.7236 12.3739 32.4786 12.9178 32.9915C13.492 33.5328 14.3078 33.8034 15.3654 33.8034H16V40H13.0538Z" fill="#FF6E2C"/>
</svg>
