<svg width="20" height="20" viewBox="0 0 20 20" fill="none" xmlns="http://www.w3.org/2000/svg">
<g id="Icon Left">
<path id="icon" fill-rule="evenodd" clip-rule="evenodd" d="M8.99838 2.50024H11.0015C11.1387 2.50024 11.2499 2.61145 11.2499 2.74866C11.2499 5.00926 13.6971 6.42227 15.6549 5.29192C15.7737 5.22334 15.9256 5.26404 15.9942 5.38282L16.9958 7.11768C17.0644 7.23649 17.0237 7.38841 16.9049 7.45701C14.9471 8.58735 14.9471 11.4132 16.9049 12.5435C17.0237 12.6121 17.0644 12.7641 16.9958 12.8829L15.9942 14.6177C15.9256 14.7365 15.7737 14.7772 15.6549 14.7086C13.6971 13.5783 11.2499 14.9912 11.2499 17.2519C11.2499 17.389 11.1387 17.5002 11.0016 17.5002H8.99835C8.86115 17.5002 8.74992 17.389 8.74992 17.2518C8.74992 14.9911 6.3026 13.5782 4.34484 14.7086C4.22598 14.7772 4.07401 14.7364 4.00541 14.6176L3.00385 12.8829C2.93525 12.7641 2.97596 12.6121 3.09478 12.5435C5.05258 11.4132 5.05258 8.58735 3.09478 7.45701C2.97596 7.38841 2.93525 7.23649 3.00385 7.11767L4.00541 5.38292C4.07402 5.26409 4.22598 5.22336 4.34483 5.29198C6.30264 6.42232 8.74992 5.00941 8.74992 2.7487C8.74992 2.61148 8.86116 2.50024 8.99838 2.50024ZM6.87492 2.7487C6.87492 1.57595 7.82563 0.625244 8.99838 0.625244H11.0015C12.1742 0.625244 13.1249 1.57594 13.1249 2.74866C13.1249 3.56594 14.0097 4.07676 14.7174 3.66812C15.733 3.08177 17.0316 3.42974 17.618 4.44532L18.6196 6.18018C19.206 7.19579 18.858 8.49445 17.8424 9.08081C17.1346 9.48946 17.1346 10.5111 17.8424 10.9197C18.858 11.5061 19.206 12.8048 18.6196 13.8204L17.618 15.5552C17.0316 16.5708 15.733 16.9188 14.7174 16.3324C14.0097 15.9238 13.1249 16.4346 13.1249 17.2519C13.1249 18.4246 12.1743 19.3752 11.0016 19.3752H8.99835C7.82561 19.3752 6.87492 18.4246 6.87492 17.2518C6.87492 16.4345 5.99015 15.9237 5.28234 16.3324C4.2667 16.9187 2.96799 16.5708 2.38161 15.5551L1.38005 13.8204C0.793689 12.8048 1.14166 11.5061 2.15728 10.9197C2.86508 10.5111 2.86508 9.48946 2.15728 9.08081C1.14166 8.49444 0.793689 7.19578 1.38005 6.18017L2.38161 4.44542C2.96799 3.42978 4.26669 3.0818 5.28233 3.66818C5.99015 4.07684 6.87492 3.56602 6.87492 2.7487ZM11.8749 10.0002C11.8749 11.0358 11.0354 11.8752 9.99989 11.8752C8.96436 11.8752 8.12489 11.0358 8.12489 10.0002C8.12489 8.96471 8.96436 8.12524 9.99989 8.12524C11.0354 8.12524 11.8749 8.96471 11.8749 10.0002ZM13.7499 10.0002C13.7499 12.0713 12.071 13.7502 9.99989 13.7502C7.92883 13.7502 6.24989 12.0713 6.24989 10.0002C6.24989 7.92917 7.92883 6.25024 9.99989 6.25024C12.071 6.25024 13.7499 7.92917 13.7499 10.0002Z" fill="#9E9E9E"/>
</g>
</svg>
