<svg width="24" height="24" viewBox="0 0 24 24" fill="none" xmlns="http://www.w3.org/2000/svg">
<g id="icon">
<mask id="mask0_1001_9991" style="mask-type:alpha" maskUnits="userSpaceOnUse" x="0" y="0" width="24" height="24">
<path id="Ellipse 6" d="M24 12C24 18.6274 18.6274 24 12 24C5.37258 24 0 18.6274 0 12C0 5.37258 5.37258 0 12 0C18.6274 0 24 5.37258 24 12Z" fill="#D9D9D9"/>
</mask>
<g mask="url(#mask0_1001_9991)">
<g id="Group">
<path id="Vector" d="M0 12H12V24H4.27333C2.78667 24 2.24667 23.8467 1.70667 23.5533C1.16728 23.2704 0.725817 22.8312 0.44 22.2933C0.16 21.7533 0 21.2133 0 19.7333V12Z" fill="#F2F1ED"/>
<path id="Vector_2" d="M12 12H24V19.7267C24 21.2133 23.8467 21.7533 23.5533 22.2933C23.2704 22.8327 22.8312 23.2742 22.2933 23.56C21.7533 23.8467 21.2133 24 19.7267 24H12V12Z" fill="black"/>
<path id="Vector_3" d="M4.27333 0H19.7267C21.2133 0 21.7533 0.153333 22.2933 0.446667C22.8327 0.729641 23.2742 1.16878 23.56 1.70667C23.8467 2.24667 24 2.78667 24 4.27333V12H0V4.27333C0 2.78667 0.153333 2.24667 0.446667 1.70667C0.729641 1.16728 1.16878 0.725817 1.70667 0.44C2.24667 0.16 2.78667 0 4.26667 0H4.27333Z" fill="#FFDD33"/>
</g>
</g>
</g>
</svg>
