<svg width="24" height="24" viewBox="0 0 24 24" fill="none" xmlns="http://www.w3.org/2000/svg">
<g id="icon">
<circle id="Ellipse 5" cx="12" cy="12" r="12" fill="#01C8C8"/>
<path id="Vector" d="M21.465 11.7299C21.4018 11.5377 21.2677 11.3767 21.09 11.2799L7.29001 3.55491C7.16703 3.48735 7.02862 3.4529 6.88832 3.45492C6.74803 3.45694 6.61066 3.49537 6.48969 3.56644C6.36871 3.63752 6.26827 3.7388 6.19821 3.86036C6.12814 3.98193 6.09086 4.11961 6.09001 4.25991V7.16991L5.04001 6.86991C4.88815 6.82342 4.72598 6.82259 4.57366 6.86753C4.42133 6.91246 4.28558 7.00119 4.18328 7.12267C4.08098 7.24415 4.01665 7.39302 3.99829 7.55077C3.97993 7.70852 4.00835 7.86819 4.08001 8.00991L6.09001 11.9999L4.08001 15.9899C4.00835 16.1316 3.97993 16.2913 3.99829 16.4491C4.01665 16.6068 4.08098 16.7557 4.18328 16.8772C4.28558 16.9986 4.42133 17.0874 4.57366 17.1323C4.72598 17.1772 4.88815 17.1764 5.04001 17.1299L6.09001 16.8299V19.7399C6.09086 19.8802 6.12814 20.0179 6.19821 20.1395C6.26827 20.261 6.36871 20.3623 6.48969 20.4334C6.61066 20.5045 6.74803 20.5429 6.88832 20.5449C7.02862 20.5469 7.16703 20.5125 7.29001 20.4449L21.09 12.7049C21.27 12.6149 21.39 12.4499 21.465 12.2549C21.5245 12.085 21.5245 11.8999 21.465 11.7299Z" fill="white"/>
<path id="Vector_2" d="M21.465 11.7299C21.4055 11.5402 21.2771 11.3796 21.105 11.2799L7.305 3.55493C7.18161 3.48369 7.04161 3.44626 6.89912 3.44641C6.75664 3.44657 6.61672 3.4843 6.49348 3.55581C6.37024 3.62732 6.26804 3.73007 6.1972 3.8537C6.12636 3.97733 6.08938 4.11745 6.09 4.25993V7.16994L21.45 11.7299H21.465Z" fill="#FAFFFE"/>
<path id="Vector_3" d="M6.09 19.7399C6.09085 19.8802 6.12813 20.0179 6.1982 20.1394C6.26826 20.261 6.3687 20.3623 6.48968 20.4334C6.61065 20.5044 6.74802 20.5429 6.88831 20.5449C7.02861 20.5469 7.16702 20.5124 7.29 20.4449L21.09 12.7049C21.1795 12.6589 21.2588 12.5953 21.3232 12.518C21.3877 12.4407 21.4359 12.3512 21.465 12.2549L6.09 16.8449V19.7549V19.7399Z" fill="#A7E9E9"/>
<path id="Vector_4" d="M21.465 11.7301L5.04001 6.87009C4.88815 6.82359 4.72598 6.82276 4.57366 6.8677C4.42133 6.91264 4.28558 7.00137 4.18328 7.12284C4.08098 7.24432 4.01665 7.39319 3.99829 7.55094C3.97993 7.70869 4.00835 7.86836 4.08001 8.01009L6.09001 12.0001H21.51C21.5101 11.9082 21.4949 11.817 21.465 11.7301Z" fill="#BBF5F5"/>
<path id="Vector_5" d="M6.09001 12L4.08001 15.99C4.00835 16.1317 3.97993 16.2914 3.99829 16.4491C4.01665 16.6069 4.08098 16.7558 4.18328 16.8772C4.28558 16.9987 4.42133 17.0874 4.57366 17.1324C4.72598 17.1773 4.88815 17.1765 5.04001 17.13L21.465 12.27C21.4949 12.1831 21.5101 12.0919 21.51 12H6.09001Z" fill="#FAFFFE"/>
</g>
</svg>
