<svg width="20" height="20" viewBox="0 0 20 20" fill="none" xmlns="http://www.w3.org/2000/svg">
<g clip-path="url(#clip0_956_17559)">
<path fill-rule="evenodd" clip-rule="evenodd" d="M13.864 2.89799C14.3415 3.25611 14.4782 3.88492 14.2464 4.39383C14.1995 4.49691 14.1374 4.59507 14.06 4.68507C14.0397 4.70868 14.0183 4.73172 13.9959 4.75414L13.75 5.00001C13.4048 5.34519 13.4048 5.90484 13.75 6.25002C14.0952 6.59519 14.6548 6.59519 15 6.25002L15.2459 6.00414C15.2683 5.98172 15.2914 5.96036 15.315 5.94006C15.405 5.86263 15.5031 5.80056 15.6062 5.75361C16.1151 5.52182 16.7439 5.65855 17.102 6.13605L18.6564 8.20848C19.375 9.1666 19.1067 10.536 18.0797 11.1522C15.237 12.8578 12.8578 15.237 11.1522 18.0797C10.536 19.1067 9.1666 19.375 8.20848 18.6564L6.13605 17.102C5.65855 16.7439 5.52182 16.1151 5.75361 15.6062C5.80056 15.5031 5.86263 15.405 5.94006 15.315C5.96036 15.2914 5.98172 15.2683 6.00414 15.2459L6.25002 15C6.59519 14.6548 6.59519 14.0952 6.25002 13.75C5.90484 13.4048 5.34519 13.4048 5.00002 13.75L4.75414 13.9959C4.73172 14.0183 4.70868 14.0397 4.68507 14.06C4.59507 14.1374 4.49691 14.1995 4.39383 14.2464C3.88492 14.4782 3.25611 14.3415 2.89799 13.864L1.34367 11.7916C0.625076 10.8334 0.893323 9.46403 1.9203 8.84784C4.76303 7.14221 7.14221 4.76303 8.84784 1.9203C9.46403 0.893323 10.8334 0.625076 11.7916 1.34367L13.864 2.89799ZM10.6666 2.84367L12.1676 3.96948C11.3549 5.05026 11.4404 6.59209 12.4242 7.57584C13.4079 8.55959 14.9498 8.64511 16.0306 7.8324L17.1564 9.33348C17.2078 9.40213 17.1886 9.50024 17.115 9.54439C14.0084 11.4084 11.4084 14.0084 9.54439 17.115C9.50024 17.1886 9.40213 17.2078 9.33348 17.1564L7.8324 16.0306C8.64511 14.9498 8.55959 13.4079 7.57584 12.4242C6.59209 11.4404 5.05026 11.3549 3.96948 12.1676L2.84367 10.6666C2.79218 10.5979 2.8114 10.4998 2.88498 10.4556C5.99162 8.59166 8.59166 5.99162 10.4556 2.88498C10.4998 2.8114 10.5979 2.79218 10.6666 2.84367ZM9.41293 8.0871C9.04681 7.72099 8.45322 7.72099 8.0871 8.0871C7.72099 8.45322 7.72099 9.04681 8.0871 9.41293L10.5871 11.9129C10.9532 12.279 11.5468 12.279 11.9129 11.9129C12.279 11.5468 12.279 10.9532 11.9129 10.5871L9.41293 8.0871Z" fill="black" fill-opacity="0.87"/>
</g>
<defs>
<clipPath id="clip0_956_17559">
<rect width="20" height="20" fill="white"/>
</clipPath>
</defs>
</svg>
