<svg width="16" height="40" viewBox="0 0 16 40" fill="none" xmlns="http://www.w3.org/2000/svg">
<path id="{" d="M2.94618 -1.1412e-06C6.11898 -8.63826e-07 8.50614 0.726493 10.1077 2.17948C11.7092 3.63248 12.5099 5.68376 12.5099 8.33333L12.5099 14.9573C12.5099 15.6125 12.6912 16.0969 13.0538 16.4103C13.4164 16.7236 13.8848 16.8803 14.4589 16.8803L16 16.8803L16 23.1197L14.4589 23.1197C13.8848 23.1197 13.4164 23.2764 13.0538 23.5897C12.6912 23.9316 12.5099 24.416 12.5099 25.0427L12.5099 31.6667C12.5099 34.3162 11.7092 36.3675 10.1076 37.8205C8.50614 39.2735 6.11898 40 2.94618 40L0 40L5.41723e-07 33.8034L0.634561 33.8034C1.69216 33.8034 2.50803 33.5328 3.08215 32.9915C3.62606 32.4786 3.89802 31.7236 3.89802 30.7265L3.89802 25.2564C3.89802 23.8319 4.10954 22.7208 4.53258 21.9231C4.95562 21.1538 5.6204 20.5983 6.52692 20.2564C7.40321 19.9145 8.55147 19.6866 9.97167 19.5726L9.97167 20.4274C8.55147 20.3134 7.40321 20.0855 6.52692 19.7436C5.6204 19.4017 4.95562 18.8319 4.53258 18.0342C4.10954 17.265 3.89802 16.1681 3.89802 14.7436L3.89802 9.2735C3.89802 8.27635 3.62607 7.52137 3.08216 7.00854C2.50803 6.46723 1.69216 6.19658 0.634564 6.19658L2.95519e-06 6.19658L3.49691e-06 -1.39876e-06L2.94618 -1.1412e-06Z" fill="#FF6E2C"/>
</svg>
